<svg xmlns="http://www.w3.org/2000/svg" width="689" height="91" viewBox="0 0 689 91">
<rect width="689" height="91" fill="#16161a" rx="6"/>
<rect x="13" y="52" width="11" height="11" fill="#16161a" rx="2"/>
<rect x="13" y="65" width="11" height="11" fill="#16161a" rx="2"/>
<rect x="13" y="78" width="11" height="11" fill="#16161a" rx="2"/>
<rect x="26" y="0" width="11" height="11" fill="#16161a" rx="2"/>
<rect x="26" y="13" width="11" height="11" fill="#16161a" rx="2"/>
<rect x="26" y="26" width="11" height="11" fill="#16161a" rx="2"/>
<rect x="26" y="39" width="11" height="11" fill="#16161a" rx="2"/>
<rect x="26" y="52" width="11" height="11" fill="#16161a" rx="2"/>
<rect x="26" y="65" width="11" height="11" fill="#16161a" rx="2"/>
<rect x="26" y="78" width="11" height="11" fill="#16161a" rx="2"/>
<rect x="39" y="0" width="11" height="11" fill="#16161a" rx="2"/>
<rect x="39" y="13" width="11" height="11" fill="#16161a" rx="2"/>
<rect x="39" y="26" width="11" height="11" fill="#16161a" rx="2"/>
<rect x="39" y="39" width="11" height="11" fill="#16161a" rx="2"/>
<rect x="39" y="52" width="11" height="11" fill="#16161a" rx="2"/>
<rect x="39" y="65" width="11" height="11" fill="#16161a" rx="2"/>
<rect x="39" y="78" width="11" height="11" fill="#16161a" rx="2"/>
<rect x="52" y="0" width="11" height="11" fill="#16161a" rx="2"/>
<rect x="52" y="13" width="11" height="11" fill="#16161a" rx="2"/>
<rect x="52" y="26" width="11" height="11" fill="#16161a" rx="2"/>
<rect x="52" y="39" width="11" height="11" fill="#16161a" rx="2"/>
<rect x="52" y="52" width="11" height="11" fill="#16161a" rx="2"/>
<rect x="52" y="65" width="11" height="11" fill="#16161a" rx="2"/>
<rect x="52" y="78" width="11" height="11" fill="#16161a" rx="2"/>
<rect x="65" y="0" width="11" height="11" fill="#16161a" rx="2"/>
<rect x="65" y="13" width="11" height="11" fill="#16161a" rx="2"/>
<rect x="65" y="26" width="11" height="11" fill="#16161a" rx="2"/>
<rect x="65" y="39" width="11" height="11" fill="#16161a" rx="2"/>
<rect x="65" y="52" width="11" height="11" fill="#16161a" rx="2"/>
<rect x="65" y="65" width="11" height="11" fill="#16161a" rx="2"/>
<rect x="65" y="78" width="11" height="11" fill="#16161a" rx="2"/>
<rect x="78" y="0" width="11" height="11" fill="#16161a" rx="2"/>
<rect x="78" y="13" width="11" height="11" fill="#16161a" rx="2"/>
<rect x="78" y="26" width="11" height="11" fill="#16161a" rx="2"/>
<rect x="78" y="39" width="11" height="11" fill="#16161a" rx="2"/>
<rect x="78" y="52" width="11" height="11" fill="#16161a" rx="2"/>
<rect x="78" y="65" width="11" height="11" fill="#16161a" rx="2"/>
<rect x="78" y="78" width="11" height="11" fill="#16161a" rx="2"/>
<rect x="91" y="0" width="11" height="11" fill="#16161a" rx="2"/>
<rect x="91" y="13" width="11" height="11" fill="#16161a" rx="2"/>
<rect x="91" y="26" width="11" height="11" fill="#16161a" rx="2"/>
<rect x="91" y="39" width="11" height="11" fill="#16161a" rx="2"/>
<rect x="91" y="52" width="11" height="11" fill="#16161a" rx="2"/>
<rect x="91" y="65" width="11" height="11" fill="#16161a" rx="2"/>
<rect x="91" y="78" width="11" height="11" fill="#16161a" rx="2"/>
<rect x="104" y="0" width="11" height="11" fill="#16161a" rx="2"/>
<rect x="104" y="13" width="11" height="11" fill="#16161a" rx="2"/>
<rect x="104" y="26" width="11" height="11" fill="#16161a" rx="2"/>
<rect x="104" y="39" width="11" height="11" fill="#16161a" rx="2"/>
<rect x="104" y="52" width="11" height="11" fill="#16161a" rx="2"/>
<rect x="104" y="65" width="11" height="11" fill="#16161a" rx="2"/>
<rect x="104" y="78" width="11" height="11" fill="#16161a" rx="2"/>
<rect x="117" y="0" width="11" height="11" fill="#16161a" rx="2"/>
<rect x="117" y="13" width="11" height="11" fill="#16161a" rx="2"/>
<rect x="117" y="26" width="11" height="11" fill="#16161a" rx="2"/>
<rect x="117" y="39" width="11" height="11" fill="#16161a" rx="2"/>
<rect x="117" y="52" width="11" height="11" fill="#16161a" rx="2"/>
<rect x="117" y="65" width="11" height="11" fill="#16161a" rx="2"/>
<rect x="117" y="78" width="11" height="11" fill="#16161a" rx="2"/>
<rect x="130" y="0" width="11" height="11" fill="#16161a" rx="2"/>
<rect x="130" y="13" width="11" height="11" fill="#16161a" rx="2"/>
<rect x="130" y="26" width="11" height="11" fill="#16161a" rx="2"/>
<rect x="130" y="39" width="11" height="11" fill="#16161a" rx="2"/>
<rect x="130" y="52" width="11" height="11" fill="#16161a" rx="2"/>
<rect x="130" y="65" width="11" height="11" fill="#16161a" rx="2"/>
<rect x="130" y="78" width="11" height="11" fill="#16161a" rx="2"/>
<rect x="143" y="0" width="11" height="11" fill="#16161a" rx="2"/>
<rect x="143" y="13" width="11" height="11" fill="#16161a" rx="2"/>
<rect x="143" y="26" width="11" height="11" fill="#16161a" rx="2"/>
<rect x="143" y="39" width="11" height="11" fill="#16161a" rx="2"/>
<rect x="143" y="52" width="11" height="11" fill="#16161a" rx="2"/>
<rect x="143" y="65" width="11" height="11" fill="#16161a" rx="2"/>
<rect x="143" y="78" width="11" height="11" fill="#16161a" rx="2"/>
<rect x="156" y="0" width="11" height="11" fill="#16161a" rx="2"/>
<rect x="156" y="13" width="11" height="11" fill="#16161a" rx="2"/>
<rect x="156" y="26" width="11" height="11" fill="#16161a" rx="2"/>
<rect x="156" y="39" width="11" height="11" fill="#16161a" rx="2"/>
<rect x="156" y="52" width="11" height="11" fill="#16161a" rx="2"/>
<rect x="156" y="65" width="11" height="11" fill="#16161a" rx="2"/>
<rect x="156" y="78" width="11" height="11" fill="#16161a" rx="2"/>
<rect x="169" y="0" width="11" height="11" fill="#16161a" rx="2"/>
<rect x="169" y="13" width="11" height="11" fill="#16161a" rx="2"/>
<rect x="169" y="26" width="11" height="11" fill="#16161a" rx="2"/>
<rect x="169" y="39" width="11" height="11" fill="#16161a" rx="2"/>
<rect x="169" y="52" width="11" height="11" fill="#16161a" rx="2"/>
<rect x="169" y="65" width="11" height="11" fill="#16161a" rx="2"/>
<rect x="169" y="78" width="11" height="11" fill="#16161a" rx="2"/>
<rect x="182" y="0" width="11" height="11" fill="#16161a" rx="2"/>
<rect x="182" y="13" width="11" height="11" fill="#16161a" rx="2"/>
<rect x="182" y="26" width="11" height="11" fill="#16161a" rx="2"/>
<rect x="182" y="39" width="11" height="11" fill="#16161a" rx="2"/>
<rect x="182" y="52" width="11" height="11" fill="#16161a" rx="2"/>
<rect x="182" y="65" width="11" height="11" fill="#16161a" rx="2"/>
<rect x="182" y="78" width="11" height="11" fill="#16161a" rx="2"/>
<rect x="195" y="0" width="11" height="11" fill="#16161a" rx="2"/>
<rect x="195" y="13" width="11" height="11" fill="#16161a" rx="2"/>
<rect x="195" y="26" width="11" height="11" fill="#16161a" rx="2"/>
<rect x="195" y="39" width="11" height="11" fill="#16161a" rx="2"/>
<rect x="195" y="52" width="11" height="11" fill="#16161a" rx="2"/>
<rect x="195" y="65" width="11" height="11" fill="#16161a" rx="2"/>
<rect x="195" y="78" width="11" height="11" fill="#16161a" rx="2"/>
<rect x="208" y="0" width="11" height="11" fill="#16161a" rx="2"/>
<rect x="208" y="13" width="11" height="11" fill="#16161a" rx="2"/>
<rect x="208" y="26" width="11" height="11" fill="#16161a" rx="2"/>
<rect x="208" y="39" width="11" height="11" fill="#16161a" rx="2"/>
<rect x="208" y="52" width="11" height="11" fill="#16161a" rx="2"/>
<rect x="208" y="65" width="11" height="11" fill="#16161a" rx="2"/>
<rect x="208" y="78" width="11" height="11" fill="#16161a" rx="2"/>
<rect x="221" y="0" width="11" height="11" fill="#16161a" rx="2"/>
<rect x="221" y="13" width="11" height="11" fill="#16161a" rx="2"/>
<rect x="221" y="26" width="11" height="11" fill="#16161a" rx="2"/>
<rect x="221" y="39" width="11" height="11" fill="#16161a" rx="2"/>
<rect x="221" y="52" width="11" height="11" fill="#16161a" rx="2"/>
<rect x="221" y="65" width="11" height="11" fill="#16161a" rx="2"/>
<rect x="221" y="78" width="11" height="11" fill="#16161a" rx="2"/>
<rect x="234" y="0" width="11" height="11" fill="#16161a" rx="2"/>
<rect x="234" y="13" width="11" height="11" fill="#16161a" rx="2"/>
<rect x="234" y="26" width="11" height="11" fill="#16161a" rx="2"/>
<rect x="234" y="39" width="11" height="11" fill="#16161a" rx="2"/>
<rect x="234" y="52" width="11" height="11" fill="#16161a" rx="2"/>
<rect x="234" y="65" width="11" height="11" fill="#16161a" rx="2"/>
<rect x="234" y="78" width="11" height="11" fill="#16161a" rx="2"/>
<rect x="247" y="0" width="11" height="11" fill="#16161a" rx="2"/>
<rect x="247" y="13" width="11" height="11" fill="#16161a" rx="2"/>
<rect x="247" y="26" width="11" height="11" fill="#16161a" rx="2"/>
<rect x="247" y="39" width="11" height="11" fill="#16161a" rx="2"/>
<rect x="247" y="52" width="11" height="11" fill="#16161a" rx="2"/>
<rect x="247" y="65" width="11" height="11" fill="#16161a" rx="2"/>
<rect x="247" y="78" width="11" height="11" fill="#16161a" rx="2"/>
<rect x="260" y="0" width="11" height="11" fill="#16161a" rx="2"/>
<rect x="260" y="13" width="11" height="11" fill="#16161a" rx="2"/>
<rect x="260" y="26" width="11" height="11" fill="#16161a" rx="2"/>
<rect x="260" y="39" width="11" height="11" fill="#16161a" rx="2"/>
<rect x="260" y="52" width="11" height="11" fill="#16161a" rx="2"/>
<rect x="260" y="65" width="11" height="11" fill="#16161a" rx="2"/>
<rect x="260" y="78" width="11" height="11" fill="#16161a" rx="2"/>
<rect x="273" y="0" width="11" height="11" fill="#16161a" rx="2"/>
<rect x="273" y="13" width="11" height="11" fill="#16161a" rx="2"/>
<rect x="273" y="26" width="11" height="11" fill="#16161a" rx="2"/>
<rect x="273" y="39" width="11" height="11" fill="#16161a" rx="2"/>
<rect x="273" y="52" width="11" height="11" fill="#16161a" rx="2"/>
<rect x="273" y="65" width="11" height="11" fill="#16161a" rx="2"/>
<rect x="273" y="78" width="11" height="11" fill="#16161a" rx="2"/>
<rect x="286" y="0" width="11" height="11" fill="#16161a" rx="2"/>
<rect x="286" y="13" width="11" height="11" fill="#16161a" rx="2"/>
<rect x="286" y="26" width="11" height="11" fill="#16161a" rx="2"/>
<rect x="286" y="39" width="11" height="11" fill="#16161a" rx="2"/>
<rect x="286" y="52" width="11" height="11" fill="#16161a" rx="2"/>
<rect x="286" y="65" width="11" height="11" fill="#16161a" rx="2"/>
<rect x="286" y="78" width="11" height="11" fill="#16161a" rx="2"/>
<rect x="299" y="0" width="11" height="11" fill="#16161a" rx="2"/>
<rect x="299" y="13" width="11" height="11" fill="#16161a" rx="2"/>
<rect x="299" y="26" width="11" height="11" fill="#16161a" rx="2"/>
<rect x="299" y="39" width="11" height="11" fill="#16161a" rx="2"/>
<rect x="299" y="52" width="11" height="11" fill="#16161a" rx="2"/>
<rect x="299" y="65" width="11" height="11" fill="#16161a" rx="2"/>
<rect x="299" y="78" width="11" height="11" fill="#16161a" rx="2"/>
<rect x="312" y="0" width="11" height="11" fill="#16161a" rx="2"/>
<rect x="312" y="13" width="11" height="11" fill="#16161a" rx="2"/>
<rect x="312" y="26" width="11" height="11" fill="#16161a" rx="2"/>
<rect x="312" y="39" width="11" height="11" fill="#16161a" rx="2"/>
<rect x="312" y="52" width="11" height="11" fill="#16161a" rx="2"/>
<rect x="312" y="65" width="11" height="11" fill="#16161a" rx="2"/>
<rect x="312" y="78" width="11" height="11" fill="#16161a" rx="2"/>
<rect x="325" y="0" width="11" height="11" fill="#16161a" rx="2"/>
<rect x="325" y="13" width="11" height="11" fill="#16161a" rx="2"/>
<rect x="325" y="26" width="11" height="11" fill="#16161a" rx="2"/>
<rect x="325" y="39" width="11" height="11" fill="#16161a" rx="2"/>
<rect x="325" y="52" width="11" height="11" fill="#16161a" rx="2"/>
<rect x="325" y="65" width="11" height="11" fill="#16161a" rx="2"/>
<rect x="325" y="78" width="11" height="11" fill="#16161a" rx="2"/>
<rect x="338" y="0" width="11" height="11" fill="#16161a" rx="2"/>
<rect x="338" y="13" width="11" height="11" fill="#16161a" rx="2"/>
<rect x="338" y="26" width="11" height="11" fill="#16161a" rx="2"/>
<rect x="338" y="39" width="11" height="11" fill="#16161a" rx="2"/>
<rect x="338" y="52" width="11" height="11" fill="#16161a" rx="2"/>
<rect x="338" y="65" width="11" height="11" fill="#16161a" rx="2"/>
<rect x="338" y="78" width="11" height="11" fill="#16161a" rx="2"/>
<rect x="-325" y="0" width="11" height="11" fill="#16161a" rx="2"/>
<rect x="-325" y="13" width="11" height="11" fill="#16161a" rx="2"/>
<rect x="-325" y="26" width="11" height="11" fill="#16161a" rx="2"/>
<rect x="-325" y="39" width="11" height="11" fill="#16161a" rx="2"/>
<rect x="-325" y="52" width="11" height="11" fill="#16161a" rx="2"/>
<rect x="-325" y="65" width="11" height="11" fill="#16161a" rx="2"/>
<rect x="-325" y="78" width="11" height="11" fill="#16161a" rx="2"/>
<rect x="-312" y="0" width="11" height="11" fill="#16161a" rx="2"/>
<rect x="-312" y="13" width="11" height="11" fill="#16161a" rx="2"/>
<rect x="-312" y="26" width="11" height="11" fill="#16161a" rx="2"/>
<rect x="-312" y="39" width="11" height="11" fill="#16161a" rx="2"/>
<rect x="-312" y="52" width="11" height="11" fill="#16161a" rx="2"/>
<rect x="-312" y="65" width="11" height="11" fill="#16161a" rx="2"/>
<rect x="-312" y="78" width="11" height="11" fill="#16161a" rx="2"/>
<rect x="-299" y="0" width="11" height="11" fill="#16161a" rx="2"/>
<rect x="-299" y="13" width="11" height="11" fill="#16161a" rx="2"/>
<rect x="-299" y="26" width="11" height="11" fill="#16161a" rx="2"/>
<rect x="-299" y="39" width="11" height="11" fill="#16161a" rx="2"/>
<rect x="-299" y="52" width="11" height="11" fill="#16161a" rx="2"/>
<rect x="-299" y="65" width="11" height="11" fill="#16161a" rx="2"/>
<rect x="-299" y="78" width="11" height="11" fill="#16161a" rx="2"/>
<rect x="-286" y="0" width="11" height="11" fill="#16161a" rx="2"/>
<rect x="-286" y="13" width="11" height="11" fill="#16161a" rx="2"/>
<rect x="-286" y="26" width="11" height="11" fill="#16161a" rx="2"/>
<rect x="-286" y="39" width="11" height="11" fill="#16161a" rx="2"/>
<rect x="-286" y="52" width="11" height="11" fill="#16161a" rx="2"/>
<rect x="-286" y="65" width="11" height="11" fill="#16161a" rx="2"/>
<rect x="-286" y="78" width="11" height="11" fill="#16161a" rx="2"/>
<rect x="-273" y="0" width="11" height="11" fill="#16161a" rx="2"/>
<rect x="-273" y="13" width="11" height="11" fill="#16161a" rx="2"/>
<rect x="-273" y="26" width="11" height="11" fill="#16161a" rx="2"/>
<rect x="-273" y="39" width="11" height="11" fill="#16161a" rx="2"/>
<rect x="-273" y="52" width="11" height="11" fill="#16161a" rx="2"/>
<rect x="-273" y="65" width="11" height="11" fill="#16161a" rx="2"/>
<rect x="-273" y="78" width="11" height="11" fill="#16161a" rx="2"/>
<rect x="-260" y="0" width="11" height="11" fill="#16161a" rx="2"/>
<rect x="-260" y="13" width="11" height="11" fill="#16161a" rx="2"/>
<rect x="-260" y="26" width="11" height="11" fill="#16161a" rx="2"/>
<rect x="-260" y="39" width="11" height="11" fill="#16161a" rx="2"/>
<rect x="-260" y="52" width="11" height="11" fill="#16161a" rx="2"/>
<rect x="-260" y="65" width="11" height="11" fill="#16161a" rx="2"/>
<rect x="-260" y="78" width="11" height="11" fill="#16161a" rx="2"/>
<rect x="-247" y="0" width="11" height="11" fill="#16161a" rx="2"/>
<rect x="-247" y="13" width="11" height="11" fill="#16161a" rx="2"/>
<rect x="-247" y="26" width="11" height="11" fill="#16161a" rx="2"/>
<rect x="-247" y="39" width="11" height="11" fill="#16161a" rx="2"/>
<rect x="-247" y="52" width="11" height="11" fill="#16161a" rx="2"/>
<rect x="-247" y="65" width="11" height="11" fill="#16161a" rx="2"/>
<rect x="-247" y="78" width="11" height="11" fill="#16161a" rx="2"/>
<rect x="-234" y="0" width="11" height="11" fill="#16161a" rx="2"/>
<rect x="-234" y="13" width="11" height="11" fill="#16161a" rx="2"/>
<rect x="-234" y="26" width="11" height="11" fill="#16161a" rx="2"/>
<rect x="-234" y="39" width="11" height="11" fill="#16161a" rx="2"/>
<rect x="-234" y="52" width="11" height="11" fill="#16161a" rx="2"/>
<rect x="-234" y="65" width="11" height="11" fill="#16161a" rx="2"/>
<rect x="-234" y="78" width="11" height="11" fill="#16161a" rx="2"/>
<rect x="-221" y="0" width="11" height="11" fill="#16161a" rx="2"/>
<rect x="-221" y="13" width="11" height="11" fill="#16161a" rx="2"/>
<rect x="-221" y="26" width="11" height="11" fill="#16161a" rx="2"/>
<rect x="-221" y="39" width="11" height="11" fill="#16161a" rx="2"/>
<rect x="-221" y="52" width="11" height="11" fill="#16161a" rx="2"/>
<rect x="-221" y="65" width="11" height="11" fill="#16161a" rx="2"/>
<rect x="-221" y="78" width="11" height="11" fill="#16161a" rx="2"/>
<rect x="-208" y="0" width="11" height="11" fill="#16161a" rx="2"/>
<rect x="-208" y="13" width="11" height="11" fill="#16161a" rx="2"/>
<rect x="-208" y="26" width="11" height="11" fill="#16161a" rx="2"/>
<rect x="-208" y="39" width="11" height="11" fill="#16161a" rx="2"/>
<rect x="-208" y="52" width="11" height="11" fill="#16161a" rx="2"/>
<rect x="-208" y="65" width="11" height="11" fill="#16161a" rx="2"/>
<rect x="-208" y="78" width="11" height="11" fill="#16161a" rx="2"/>
<rect x="-195" y="0" width="11" height="11" fill="#16161a" rx="2"/>
<rect x="-195" y="13" width="11" height="11" fill="#16161a" rx="2"/>
<rect x="-195" y="26" width="11" height="11" fill="#16161a" rx="2"/>
<rect x="-195" y="39" width="11" height="11" fill="#16161a" rx="2"/>
<rect x="-195" y="52" width="11" height="11" fill="#16161a" rx="2"/>
<rect x="-195" y="65" width="11" height="11" fill="#16161a" rx="2"/>
<rect x="-195" y="78" width="11" height="11" fill="#16161a" rx="2"/>
<rect x="-182" y="0" width="11" height="11" fill="#16161a" rx="2"/>
<rect x="-182" y="13" width="11" height="11" fill="#16161a" rx="2"/>
<rect x="-182" y="26" width="11" height="11" fill="#16161a" rx="2"/>
<rect x="-182" y="39" width="11" height="11" fill="#16161a" rx="2"/>
<rect x="-182" y="52" width="11" height="11" fill="#16161a" rx="2"/>
<rect x="-182" y="65" width="11" height="11" fill="#16161a" rx="2"/>
<rect x="-182" y="78" width="11" height="11" fill="#16161a" rx="2"/>
<rect x="-169" y="0" width="11" height="11" fill="#16161a" rx="2"/>
<rect x="-169" y="13" width="11" height="11" fill="#16161a" rx="2"/>
<rect x="-169" y="26" width="11" height="11" fill="#16161a" rx="2"/>
<rect x="-169" y="39" width="11" height="11" fill="#16161a" rx="2"/>
<rect x="-169" y="52" width="11" height="11" fill="#16161a" rx="2"/>
<rect x="-169" y="65" width="11" height="11" fill="#16161a" rx="2"/>
<rect x="-169" y="78" width="11" height="11" fill="#16161a" rx="2"/>
<rect x="-156" y="0" width="11" height="11" fill="#16161a" rx="2"/>
<rect x="-156" y="13" width="11" height="11" fill="#16161a" rx="2"/>
<rect x="-156" y="26" width="11" height="11" fill="#16161a" rx="2"/>
<rect x="-156" y="39" width="11" height="11" fill="#16161a" rx="2"/>
<rect x="-156" y="52" width="11" height="11" fill="#16161a" rx="2"/>
<rect x="-156" y="65" width="11" height="11" fill="#16161a" rx="2"/>
<rect x="-156" y="78" width="11" height="11" fill="#16161a" rx="2"/>
<rect x="-143" y="0" width="11" height="11" fill="#16161a" rx="2"/>
<rect x="-143" y="13" width="11" height="11" fill="#16161a" rx="2"/>
<rect x="-143" y="26" width="11" height="11" fill="#16161a" rx="2"/>
<rect x="-143" y="39" width="11" height="11" fill="#16161a" rx="2"/>
<rect x="-143" y="52" width="11" height="11" fill="#16161a" rx="2"/>
<rect x="-143" y="65" width="11" height="11" fill="#16161a" rx="2"/>
<rect x="-143" y="78" width="11" height="11" fill="#16161a" rx="2"/>
<rect x="-130" y="0" width="11" height="11" fill="#16161a" rx="2"/>
<rect x="-130" y="13" width="11" height="11" fill="#16161a" rx="2"/>
<rect x="-130" y="26" width="11" height="11" fill="#16161a" rx="2"/>
<rect x="-130" y="39" width="11" height="11" fill="#16161a" rx="2"/>
<rect x="-130" y="52" width="11" height="11" fill="#16161a" rx="2"/>
<rect x="-130" y="65" width="11" height="11" fill="#16161a" rx="2"/>
<rect x="-130" y="78" width="11" height="11" fill="#16161a" rx="2"/>
<rect x="-117" y="0" width="11" height="11" fill="#16161a" rx="2"/>
<rect x="-117" y="13" width="11" height="11" fill="#16161a" rx="2"/>
<rect x="-117" y="26" width="11" height="11" fill="#16161a" rx="2"/>
<rect x="-117" y="39" width="11" height="11" fill="#16161a" rx="2"/>
<rect x="-117" y="52" width="11" height="11" fill="#16161a" rx="2"/>
<rect x="-117" y="65" width="11" height="11" fill="#16161a" rx="2"/>
<rect x="-117" y="78" width="11" height="11" fill="#16161a" rx="2"/>
<rect x="-104" y="0" width="11" height="11" fill="#16161a" rx="2"/>
<rect x="-104" y="13" width="11" height="11" fill="#16161a" rx="2"/>
<rect x="-104" y="26" width="11" height="11" fill="#16161a" rx="2"/>
<rect x="-104" y="39" width="11" height="11" fill="#16161a" rx="2"/>
<rect x="-104" y="52" width="11" height="11" fill="#16161a" rx="2"/>
<rect x="-104" y="65" width="11" height="11" fill="#16161a" rx="2"/>
<rect x="-104" y="78" width="11" height="11" fill="#16161a" rx="2"/>
<rect x="-91" y="0" width="11" height="11" fill="#16161a" rx="2"/>
<rect x="-91" y="13" width="11" height="11" fill="#16161a" rx="2"/>
<rect x="-91" y="26" width="11" height="11" fill="#16161a" rx="2"/>
<rect x="-91" y="39" width="11" height="11" fill="#16161a" rx="2"/>
<rect x="-91" y="52" width="11" height="11" fill="#16161a" rx="2"/>
<rect x="-91" y="65" width="11" height="11" fill="#16161a" rx="2"/>
<rect x="-91" y="78" width="11" height="11" fill="#16161a" rx="2"/>
<rect x="-78" y="0" width="11" height="11" fill="#16161a" rx="2"/>
<rect x="-78" y="13" width="11" height="11" fill="#16161a" rx="2"/>
<rect x="-78" y="26" width="11" height="11" fill="#16161a" rx="2"/>
<rect x="-78" y="39" width="11" height="11" fill="#16161a" rx="2"/>
<rect x="-78" y="52" width="11" height="11" fill="#16161a" rx="2"/>
<rect x="-78" y="65" width="11" height="11" fill="#16161a" rx="2"/>
<rect x="-78" y="78" width="11" height="11" fill="#16161a" rx="2"/>
<rect x="-65" y="0" width="11" height="11" fill="#16161a" rx="2"/>
<rect x="-65" y="13" width="11" height="11" fill="#16161a" rx="2"/>
<rect x="-65" y="26" width="11" height="11" fill="#16161a" rx="2"/>
<rect x="-65" y="39" width="11" height="11" fill="#16161a" rx="2"/>
<rect x="-65" y="52" width="11" height="11" fill="#16161a" rx="2"/>
<rect x="-65" y="65" width="11" height="11" fill="#16161a" rx="2"/>
<rect x="-65" y="78" width="11" height="11" fill="#16161a" rx="2"/>
<rect x="-52" y="0" width="11" height="11" fill="#16161a" rx="2"/>
<rect x="-52" y="13" width="11" height="11" fill="#16161a" rx="2"/>
<rect x="-52" y="26" width="11" height="11" fill="#16161a" rx="2"/>
<rect x="-52" y="39" width="11" height="11" fill="#16161a" rx="2"/>
<rect x="-52" y="52" width="11" height="11" fill="#16161a" rx="2"/>
<rect x="-52" y="65" width="11" height="11" fill="#16161a" rx="2"/>
<rect x="-52" y="78" width="11" height="11" fill="#16161a" rx="2"/>
<rect x="-39" y="0" width="11" height="11" fill="#16161a" rx="2"/>
<rect x="-39" y="13" width="11" height="11" fill="#16161a" rx="2"/>
<rect x="-39" y="26" width="11" height="11" fill="#16161a" rx="2"/>
<rect x="-39" y="39" width="11" height="11" fill="#16161a" rx="2"/>
<rect x="-39" y="52" width="11" height="11" fill="#16161a" rx="2"/>
<rect x="-39" y="65" width="11" height="11" fill="#16161a" rx="2"/>
<rect x="-39" y="78" width="11" height="11" fill="#16161a" rx="2"/>
<rect x="-26" y="0" width="11" height="11" fill="#16161a" rx="2"/>
<rect x="-26" y="13" width="11" height="11" fill="#16161a" rx="2"/>
<rect x="-26" y="26" width="11" height="11" fill="#16161a" rx="2"/>
<rect x="-26" y="39" width="11" height="11" fill="#16161a" rx="2"/>
<rect x="-26" y="52" width="11" height="11" fill="#16161a" rx="2"/>
<rect x="-26" y="65" width="11" height="11" fill="#16161a" rx="2"/>
<rect x="-26" y="78" width="11" height="11" fill="#16161a" rx="2"/>
<rect x="-13" y="0" width="11" height="11" fill="#16161a" rx="2"/>
<rect x="-13" y="13" width="11" height="11" fill="#16161a" rx="2"/>
<rect x="-13" y="26" width="11" height="11" fill="#16161a" rx="2"/>
<rect x="-13" y="39" width="11" height="11" fill="#16161a" rx="2"/>
<rect x="-13" y="52" width="11" height="11" fill="#16161a" rx="2"/>
<rect x="-13" y="65" width="11" height="11" fill="#16161a" rx="2"/>
<rect x="-13" y="78" width="11" height="11" fill="#16161a" rx="2"/>
<rect x="0" y="0" width="11" height="11" fill="#16161a" rx="2"/>
<rect x="0" y="13" width="11" height="11" fill="#16161a" rx="2"/>
<rect x="0" y="26" width="11" height="11" fill="#16161a" rx="2"/>
<rect x="0" y="39" width="11" height="11" fill="#16161a" rx="2"/>
<rect x="0" y="52" width="11" height="11" fill="#16161a" rx="2"/>
<rect x="0" y="65" width="11" height="11" fill="#16161a" rx="2"/>
<rect x="0" y="78" width="11" height="11" fill="#16161a" rx="2"/>
<rect x="13" y="0" width="11" height="11" fill="#16161a" rx="2"/>
<rect x="13" y="13" width="11" height="11" fill="#16161a" rx="2"/>
<rect x="13" y="26" width="11" height="11" fill="#16161a" rx="2"/>
<rect x="13" y="39" width="11" height="11" fill="#16161a" rx="2"/>
<rect x="13" y="52" width="11" height="11" fill="#16161a" rx="2"/>
</svg>