<svg xmlns="http://www.w3.org/2000/svg" width="724" height="111" viewBox="0 0 724 111">
<text x="35" y="14" style="font-family: -apple-system, BlinkMacSystemFont, "Segoe UI", Helvetica, Arial, sans-serif; font-size: 9px; fill: #8b8b9e;">Jul</text>
<text x="87" y="14" style="font-family: -apple-system, BlinkMacSystemFont, "Segoe UI", Helvetica, Arial, sans-serif; font-size: 9px; fill: #8b8b9e;">Aug</text>
<text x="152" y="14" style="font-family: -apple-system, BlinkMacSystemFont, "Segoe UI", Helvetica, Arial, sans-serif; font-size: 9px; fill: #8b8b9e;">Sep</text>
<text x="204" y="14" style="font-family: -apple-system, BlinkMacSystemFont, "Segoe UI", Helvetica, Arial, sans-serif; font-size: 9px; fill: #8b8b9e;">Oct</text>
<text x="256" y="14" style="font-family: -apple-system, BlinkMacSystemFont, "Segoe UI", Helvetica, Arial, sans-serif; font-size: 9px; fill: #8b8b9e;">Nov</text>
<text x="321" y="14" style="font-family: -apple-system, BlinkMacSystemFont, "Segoe UI", Helvetica, Arial, sans-serif; font-size: 9px; fill: #8b8b9e;">Dec</text>
<text x="-303" y="14" style="font-family: -apple-system, BlinkMacSystemFont, "Segoe UI", Helvetica, Arial, sans-serif; font-size: 9px; fill: #8b8b9e;">Jan</text>
<text x="-251" y="14" style="font-family: -apple-system, BlinkMacSystemFont, "Segoe UI", Helvetica, Arial, sans-serif; font-size: 9px; fill: #8b8b9e;">Feb</text>
<text x="-199" y="14" style="font-family: -apple-system, BlinkMacSystemFont, "Segoe UI", Helvetica, Arial, sans-serif; font-size: 9px; fill: #8b8b9e;">Mar</text>
<text x="-134" y="14" style="font-family: -apple-system, BlinkMacSystemFont, "Segoe UI", Helvetica, Arial, sans-serif; font-size: 9px; fill: #8b8b9e;">Apr</text>
<text x="-82" y="14" style="font-family: -apple-system, BlinkMacSystemFont, "Segoe UI", Helvetica, Arial, sans-serif; font-size: 9px; fill: #8b8b9e;">May</text>
<text x="-17" y="14" style="font-family: -apple-system, BlinkMacSystemFont, "Segoe UI", Helvetica, Arial, sans-serif; font-size: 9px; fill: #8b8b9e;">Jun</text>
<text x="35" y="14" style="font-family: -apple-system, BlinkMacSystemFont, "Segoe UI", Helvetica, Arial, sans-serif; font-size: 9px; fill: #8b8b9e;">Jul</text>
<text x="29" y="42" text-anchor="end" style="font-family: -apple-system, BlinkMacSystemFont, "Segoe UI", Helvetica, Arial, sans-serif; font-size: 9px; fill: #8b8b9e;">Mon</text>
<text x="29" y="68" text-anchor="end" style="font-family: -apple-system, BlinkMacSystemFont, "Segoe UI", Helvetica, Arial, sans-serif; font-size: 9px; fill: #8b8b9e;">Wed</text>
<text x="29" y="94" text-anchor="end" style="font-family: -apple-system, BlinkMacSystemFont, "Segoe UI", Helvetica, Arial, sans-serif; font-size: 9px; fill: #8b8b9e;">Fri</text>
<rect x="35" y="72" width="11" height="11" fill="transparent" stroke="#2d2b55" stroke-width="1" rx="2"/>
<rect x="35" y="85" width="11" height="11" fill="transparent" stroke="#2d2b55" stroke-width="1" rx="2"/>
<rect x="35" y="98" width="11" height="11" fill="#2d2b55" stroke="none" stroke-width="0" rx="2"/>
<rect x="48" y="20" width="11" height="11" fill="#2d2b55" stroke="none" stroke-width="0" rx="2"/>
<rect x="48" y="33" width="11" height="11" fill="transparent" stroke="#2d2b55" stroke-width="1" rx="2"/>
<rect x="48" y="46" width="11" height="11" fill="transparent" stroke="#2d2b55" stroke-width="1" rx="2"/>
<rect x="48" y="59" width="11" height="11" fill="transparent" stroke="#2d2b55" stroke-width="1" rx="2"/>
<rect x="48" y="72" width="11" height="11" fill="transparent" stroke="#2d2b55" stroke-width="1" rx="2"/>
<rect x="48" y="85" width="11" height="11" fill="transparent" stroke="#2d2b55" stroke-width="1" rx="2"/>
<rect x="48" y="98" width="11" height="11" fill="transparent" stroke="#2d2b55" stroke-width="1" rx="2"/>
<rect x="61" y="20" width="11" height="11" fill="transparent" stroke="#2d2b55" stroke-width="1" rx="2"/>
<rect x="61" y="33" width="11" height="11" fill="transparent" stroke="#2d2b55" stroke-width="1" rx="2"/>
<rect x="61" y="46" width="11" height="11" fill="transparent" stroke="#2d2b55" stroke-width="1" rx="2"/>
<rect x="61" y="59" width="11" height="11" fill="transparent" stroke="#2d2b55" stroke-width="1" rx="2"/>
<rect x="61" y="72" width="11" height="11" fill="transparent" stroke="#2d2b55" stroke-width="1" rx="2"/>
<rect x="61" y="85" width="11" height="11" fill="transparent" stroke="#2d2b55" stroke-width="1" rx="2"/>
<rect x="61" y="98" width="11" height="11" fill="transparent" stroke="#2d2b55" stroke-width="1" rx="2"/>
<rect x="74" y="20" width="11" height="11" fill="transparent" stroke="#2d2b55" stroke-width="1" rx="2"/>
<rect x="74" y="33" width="11" height="11" fill="transparent" stroke="#2d2b55" stroke-width="1" rx="2"/>
<rect x="74" y="46" width="11" height="11" fill="transparent" stroke="#2d2b55" stroke-width="1" rx="2"/>
<rect x="74" y="59" width="11" height="11" fill="transparent" stroke="#2d2b55" stroke-width="1" rx="2"/>
<rect x="74" y="72" width="11" height="11" fill="transparent" stroke="#2d2b55" stroke-width="1" rx="2"/>
<rect x="74" y="85" width="11" height="11" fill="transparent" stroke="#2d2b55" stroke-width="1" rx="2"/>
<rect x="74" y="98" width="11" height="11" fill="transparent" stroke="#2d2b55" stroke-width="1" rx="2"/>
<rect x="87" y="20" width="11" height="11" fill="transparent" stroke="#2d2b55" stroke-width="1" rx="2"/>
<rect x="87" y="33" width="11" height="11" fill="transparent" stroke="#2d2b55" stroke-width="1" rx="2"/>
<rect x="87" y="46" width="11" height="11" fill="transparent" stroke="#2d2b55" stroke-width="1" rx="2"/>
<rect x="87" y="59" width="11" height="11" fill="transparent" stroke="#2d2b55" stroke-width="1" rx="2"/>
<rect x="87" y="72" width="11" height="11" fill="transparent" stroke="#2d2b55" stroke-width="1" rx="2"/>
<rect x="87" y="85" width="11" height="11" fill="#2d2b55" stroke="none" stroke-width="0" rx="2"/>
<rect x="87" y="98" width="11" height="11" fill="transparent" stroke="#2d2b55" stroke-width="1" rx="2"/>
<rect x="100" y="20" width="11" height="11" fill="transparent" stroke="#2d2b55" stroke-width="1" rx="2"/>
<rect x="100" y="33" width="11" height="11" fill="transparent" stroke="#2d2b55" stroke-width="1" rx="2"/>
<rect x="100" y="46" width="11" height="11" fill="transparent" stroke="#2d2b55" stroke-width="1" rx="2"/>
<rect x="100" y="59" width="11" height="11" fill="transparent" stroke="#2d2b55" stroke-width="1" rx="2"/>
<rect x="100" y="72" width="11" height="11" fill="transparent" stroke="#2d2b55" stroke-width="1" rx="2"/>
<rect x="100" y="85" width="11" height="11" fill="transparent" stroke="#2d2b55" stroke-width="1" rx="2"/>
<rect x="100" y="98" width="11" height="11" fill="transparent" stroke="#2d2b55" stroke-width="1" rx="2"/>
<rect x="113" y="20" width="11" height="11" fill="transparent" stroke="#2d2b55" stroke-width="1" rx="2"/>
<rect x="113" y="33" width="11" height="11" fill="transparent" stroke="#2d2b55" stroke-width="1" rx="2"/>
<rect x="113" y="46" width="11" height="11" fill="transparent" stroke="#2d2b55" stroke-width="1" rx="2"/>
<rect x="113" y="59" width="11" height="11" fill="transparent" stroke="#2d2b55" stroke-width="1" rx="2"/>
<rect x="113" y="72" width="11" height="11" fill="transparent" stroke="#2d2b55" stroke-width="1" rx="2"/>
<rect x="113" y="85" width="11" height="11" fill="transparent" stroke="#2d2b55" stroke-width="1" rx="2"/>
<rect x="113" y="98" width="11" height="11" fill="transparent" stroke="#2d2b55" stroke-width="1" rx="2"/>
<rect x="126" y="20" width="11" height="11" fill="transparent" stroke="#2d2b55" stroke-width="1" rx="2"/>
<rect x="126" y="33" width="11" height="11" fill="transparent" stroke="#2d2b55" stroke-width="1" rx="2"/>
<rect x="126" y="46" width="11" height="11" fill="transparent" stroke="#2d2b55" stroke-width="1" rx="2"/>
<rect x="126" y="59" width="11" height="11" fill="transparent" stroke="#2d2b55" stroke-width="1" rx="2"/>
<rect x="126" y="72" width="11" height="11" fill="transparent" stroke="#2d2b55" stroke-width="1" rx="2"/>
<rect x="126" y="85" width="11" height="11" fill="transparent" stroke="#2d2b55" stroke-width="1" rx="2"/>
<rect x="126" y="98" width="11" height="11" fill="transparent" stroke="#2d2b55" stroke-width="1" rx="2"/>
<rect x="139" y="20" width="11" height="11" fill="transparent" stroke="#2d2b55" stroke-width="1" rx="2"/>
<rect x="139" y="33" width="11" height="11" fill="transparent" stroke="#2d2b55" stroke-width="1" rx="2"/>
<rect x="139" y="46" width="11" height="11" fill="transparent" stroke="#2d2b55" stroke-width="1" rx="2"/>
<rect x="139" y="59" width="11" height="11" fill="transparent" stroke="#2d2b55" stroke-width="1" rx="2"/>
<rect x="139" y="72" width="11" height="11" fill="transparent" stroke="#2d2b55" stroke-width="1" rx="2"/>
<rect x="139" y="85" width="11" height="11" fill="transparent" stroke="#2d2b55" stroke-width="1" rx="2"/>
<rect x="139" y="98" width="11" height="11" fill="transparent" stroke="#2d2b55" stroke-width="1" rx="2"/>
<rect x="152" y="20" width="11" height="11" fill="transparent" stroke="#2d2b55" stroke-width="1" rx="2"/>
<rect x="152" y="33" width="11" height="11" fill="transparent" stroke="#2d2b55" stroke-width="1" rx="2"/>
<rect x="152" y="46" width="11" height="11" fill="transparent" stroke="#2d2b55" stroke-width="1" rx="2"/>
<rect x="152" y="59" width="11" height="11" fill="transparent" stroke="#2d2b55" stroke-width="1" rx="2"/>
<rect x="152" y="72" width="11" height="11" fill="transparent" stroke="#2d2b55" stroke-width="1" rx="2"/>
<rect x="152" y="85" width="11" height="11" fill="transparent" stroke="#2d2b55" stroke-width="1" rx="2"/>
<rect x="152" y="98" width="11" height="11" fill="transparent" stroke="#2d2b55" stroke-width="1" rx="2"/>
<rect x="165" y="20" width="11" height="11" fill="transparent" stroke="#2d2b55" stroke-width="1" rx="2"/>
<rect x="165" y="33" width="11" height="11" fill="transparent" stroke="#2d2b55" stroke-width="1" rx="2"/>
<rect x="165" y="46" width="11" height="11" fill="transparent" stroke="#2d2b55" stroke-width="1" rx="2"/>
<rect x="165" y="59" width="11" height="11" fill="transparent" stroke="#2d2b55" stroke-width="1" rx="2"/>
<rect x="165" y="72" width="11" height="11" fill="transparent" stroke="#2d2b55" stroke-width="1" rx="2"/>
<rect x="165" y="85" width="11" height="11" fill="transparent" stroke="#2d2b55" stroke-width="1" rx="2"/>
<rect x="165" y="98" width="11" height="11" fill="transparent" stroke="#2d2b55" stroke-width="1" rx="2"/>
<rect x="178" y="20" width="11" height="11" fill="transparent" stroke="#2d2b55" stroke-width="1" rx="2"/>
<rect x="178" y="33" width="11" height="11" fill="transparent" stroke="#2d2b55" stroke-width="1" rx="2"/>
<rect x="178" y="46" width="11" height="11" fill="transparent" stroke="#2d2b55" stroke-width="1" rx="2"/>
<rect x="178" y="59" width="11" height="11" fill="transparent" stroke="#2d2b55" stroke-width="1" rx="2"/>
<rect x="178" y="72" width="11" height="11" fill="transparent" stroke="#2d2b55" stroke-width="1" rx="2"/>
<rect x="178" y="85" width="11" height="11" fill="transparent" stroke="#2d2b55" stroke-width="1" rx="2"/>
<rect x="178" y="98" width="11" height="11" fill="#2d2b55" stroke="none" stroke-width="0" rx="2"/>
<rect x="191" y="20" width="11" height="11" fill="transparent" stroke="#2d2b55" stroke-width="1" rx="2"/>
<rect x="191" y="33" width="11" height="11" fill="transparent" stroke="#2d2b55" stroke-width="1" rx="2"/>
<rect x="191" y="46" width="11" height="11" fill="transparent" stroke="#2d2b55" stroke-width="1" rx="2"/>
<rect x="191" y="59" width="11" height="11" fill="transparent" stroke="#2d2b55" stroke-width="1" rx="2"/>
<rect x="191" y="72" width="11" height="11" fill="transparent" stroke="#2d2b55" stroke-width="1" rx="2"/>
<rect x="191" y="85" width="11" height="11" fill="transparent" stroke="#2d2b55" stroke-width="1" rx="2"/>
<rect x="191" y="98" width="11" height="11" fill="transparent" stroke="#2d2b55" stroke-width="1" rx="2"/>
<rect x="204" y="20" width="11" height="11" fill="#2d2b55" stroke="none" stroke-width="0" rx="2"/>
<rect x="204" y="33" width="11" height="11" fill="transparent" stroke="#2d2b55" stroke-width="1" rx="2"/>
<rect x="204" y="46" width="11" height="11" fill="transparent" stroke="#2d2b55" stroke-width="1" rx="2"/>
<rect x="204" y="59" width="11" height="11" fill="#2d2b55" stroke="none" stroke-width="0" rx="2"/>
<rect x="204" y="72" width="11" height="11" fill="transparent" stroke="#2d2b55" stroke-width="1" rx="2"/>
<rect x="204" y="85" width="11" height="11" fill="transparent" stroke="#2d2b55" stroke-width="1" rx="2"/>
<rect x="204" y="98" width="11" height="11" fill="transparent" stroke="#2d2b55" stroke-width="1" rx="2"/>
<rect x="217" y="20" width="11" height="11" fill="transparent" stroke="#2d2b55" stroke-width="1" rx="2"/>
<rect x="217" y="33" width="11" height="11" fill="transparent" stroke="#2d2b55" stroke-width="1" rx="2"/>
<rect x="217" y="46" width="11" height="11" fill="transparent" stroke="#2d2b55" stroke-width="1" rx="2"/>
<rect x="217" y="59" width="11" height="11" fill="transparent" stroke="#2d2b55" stroke-width="1" rx="2"/>
<rect x="217" y="72" width="11" height="11" fill="transparent" stroke="#2d2b55" stroke-width="1" rx="2"/>
<rect x="217" y="85" width="11" height="11" fill="transparent" stroke="#2d2b55" stroke-width="1" rx="2"/>
<rect x="217" y="98" width="11" height="11" fill="transparent" stroke="#2d2b55" stroke-width="1" rx="2"/>
<rect x="230" y="20" width="11" height="11" fill="transparent" stroke="#2d2b55" stroke-width="1" rx="2"/>
<rect x="230" y="33" width="11" height="11" fill="transparent" stroke="#2d2b55" stroke-width="1" rx="2"/>
<rect x="230" y="46" width="11" height="11" fill="transparent" stroke="#2d2b55" stroke-width="1" rx="2"/>
<rect x="230" y="59" width="11" height="11" fill="transparent" stroke="#2d2b55" stroke-width="1" rx="2"/>
<rect x="230" y="72" width="11" height="11" fill="transparent" stroke="#2d2b55" stroke-width="1" rx="2"/>
<rect x="230" y="85" width="11" height="11" fill="transparent" stroke="#2d2b55" stroke-width="1" rx="2"/>
<rect x="230" y="98" width="11" height="11" fill="transparent" stroke="#2d2b55" stroke-width="1" rx="2"/>
<rect x="243" y="20" width="11" height="11" fill="transparent" stroke="#2d2b55" stroke-width="1" rx="2"/>
<rect x="243" y="33" width="11" height="11" fill="transparent" stroke="#2d2b55" stroke-width="1" rx="2"/>
<rect x="243" y="46" width="11" height="11" fill="transparent" stroke="#2d2b55" stroke-width="1" rx="2"/>
<rect x="243" y="59" width="11" height="11" fill="transparent" stroke="#2d2b55" stroke-width="1" rx="2"/>
<rect x="243" y="72" width="11" height="11" fill="transparent" stroke="#2d2b55" stroke-width="1" rx="2"/>
<rect x="243" y="85" width="11" height="11" fill="transparent" stroke="#2d2b55" stroke-width="1" rx="2"/>
<rect x="243" y="98" width="11" height="11" fill="transparent" stroke="#2d2b55" stroke-width="1" rx="2"/>
<rect x="256" y="20" width="11" height="11" fill="transparent" stroke="#2d2b55" stroke-width="1" rx="2"/>
<rect x="256" y="33" width="11" height="11" fill="transparent" stroke="#2d2b55" stroke-width="1" rx="2"/>
<rect x="256" y="46" width="11" height="11" fill="transparent" stroke="#2d2b55" stroke-width="1" rx="2"/>
<rect x="256" y="59" width="11" height="11" fill="transparent" stroke="#2d2b55" stroke-width="1" rx="2"/>
<rect x="256" y="72" width="11" height="11" fill="transparent" stroke="#2d2b55" stroke-width="1" rx="2"/>
<rect x="256" y="85" width="11" height="11" fill="transparent" stroke="#2d2b55" stroke-width="1" rx="2"/>
<rect x="256" y="98" width="11" height="11" fill="transparent" stroke="#2d2b55" stroke-width="1" rx="2"/>
<rect x="269" y="20" width="11" height="11" fill="transparent" stroke="#2d2b55" stroke-width="1" rx="2"/>
<rect x="269" y="33" width="11" height="11" fill="transparent" stroke="#2d2b55" stroke-width="1" rx="2"/>
<rect x="269" y="46" width="11" height="11" fill="transparent" stroke="#2d2b55" stroke-width="1" rx="2"/>
<rect x="269" y="59" width="11" height="11" fill="transparent" stroke="#2d2b55" stroke-width="1" rx="2"/>
<rect x="269" y="72" width="11" height="11" fill="transparent" stroke="#2d2b55" stroke-width="1" rx="2"/>
<rect x="269" y="85" width="11" height="11" fill="transparent" stroke="#2d2b55" stroke-width="1" rx="2"/>
<rect x="269" y="98" width="11" height="11" fill="transparent" stroke="#2d2b55" stroke-width="1" rx="2"/>
<rect x="282" y="20" width="11" height="11" fill="transparent" stroke="#2d2b55" stroke-width="1" rx="2"/>
<rect x="282" y="33" width="11" height="11" fill="transparent" stroke="#2d2b55" stroke-width="1" rx="2"/>
<rect x="282" y="46" width="11" height="11" fill="transparent" stroke="#2d2b55" stroke-width="1" rx="2"/>
<rect x="282" y="59" width="11" height="11" fill="transparent" stroke="#2d2b55" stroke-width="1" rx="2"/>
<rect x="282" y="72" width="11" height="11" fill="transparent" stroke="#2d2b55" stroke-width="1" rx="2"/>
<rect x="282" y="85" width="11" height="11" fill="transparent" stroke="#2d2b55" stroke-width="1" rx="2"/>
<rect x="282" y="98" width="11" height="11" fill="transparent" stroke="#2d2b55" stroke-width="1" rx="2"/>
<rect x="295" y="20" width="11" height="11" fill="transparent" stroke="#2d2b55" stroke-width="1" rx="2"/>
<rect x="295" y="33" width="11" height="11" fill="transparent" stroke="#2d2b55" stroke-width="1" rx="2"/>
<rect x="295" y="46" width="11" height="11" fill="transparent" stroke="#2d2b55" stroke-width="1" rx="2"/>
<rect x="295" y="59" width="11" height="11" fill="transparent" stroke="#2d2b55" stroke-width="1" rx="2"/>
<rect x="295" y="72" width="11" height="11" fill="transparent" stroke="#2d2b55" stroke-width="1" rx="2"/>
<rect x="295" y="85" width="11" height="11" fill="transparent" stroke="#2d2b55" stroke-width="1" rx="2"/>
<rect x="295" y="98" width="11" height="11" fill="transparent" stroke="#2d2b55" stroke-width="1" rx="2"/>
<rect x="308" y="20" width="11" height="11" fill="transparent" stroke="#2d2b55" stroke-width="1" rx="2"/>
<rect x="308" y="33" width="11" height="11" fill="transparent" stroke="#2d2b55" stroke-width="1" rx="2"/>
<rect x="308" y="46" width="11" height="11" fill="transparent" stroke="#2d2b55" stroke-width="1" rx="2"/>
<rect x="308" y="59" width="11" height="11" fill="transparent" stroke="#2d2b55" stroke-width="1" rx="2"/>
<rect x="308" y="72" width="11" height="11" fill="transparent" stroke="#2d2b55" stroke-width="1" rx="2"/>
<rect x="308" y="85" width="11" height="11" fill="transparent" stroke="#2d2b55" stroke-width="1" rx="2"/>
<rect x="308" y="98" width="11" height="11" fill="transparent" stroke="#2d2b55" stroke-width="1" rx="2"/>
<rect x="321" y="20" width="11" height="11" fill="transparent" stroke="#2d2b55" stroke-width="1" rx="2"/>
<rect x="321" y="33" width="11" height="11" fill="transparent" stroke="#2d2b55" stroke-width="1" rx="2"/>
<rect x="321" y="46" width="11" height="11" fill="transparent" stroke="#2d2b55" stroke-width="1" rx="2"/>
<rect x="321" y="59" width="11" height="11" fill="transparent" stroke="#2d2b55" stroke-width="1" rx="2"/>
<rect x="321" y="72" width="11" height="11" fill="transparent" stroke="#2d2b55" stroke-width="1" rx="2"/>
<rect x="321" y="85" width="11" height="11" fill="transparent" stroke="#2d2b55" stroke-width="1" rx="2"/>
<rect x="321" y="98" width="11" height="11" fill="transparent" stroke="#2d2b55" stroke-width="1" rx="2"/>
<rect x="334" y="20" width="11" height="11" fill="transparent" stroke="#2d2b55" stroke-width="1" rx="2"/>
<rect x="334" y="33" width="11" height="11" fill="transparent" stroke="#2d2b55" stroke-width="1" rx="2"/>
<rect x="334" y="46" width="11" height="11" fill="transparent" stroke="#2d2b55" stroke-width="1" rx="2"/>
<rect x="334" y="59" width="11" height="11" fill="transparent" stroke="#2d2b55" stroke-width="1" rx="2"/>
<rect x="334" y="72" width="11" height="11" fill="transparent" stroke="#2d2b55" stroke-width="1" rx="2"/>
<rect x="334" y="85" width="11" height="11" fill="transparent" stroke="#2d2b55" stroke-width="1" rx="2"/>
<rect x="334" y="98" width="11" height="11" fill="transparent" stroke="#2d2b55" stroke-width="1" rx="2"/>
<rect x="347" y="20" width="11" height="11" fill="transparent" stroke="#2d2b55" stroke-width="1" rx="2"/>
<rect x="347" y="33" width="11" height="11" fill="transparent" stroke="#2d2b55" stroke-width="1" rx="2"/>
<rect x="347" y="46" width="11" height="11" fill="transparent" stroke="#2d2b55" stroke-width="1" rx="2"/>
<rect x="347" y="59" width="11" height="11" fill="transparent" stroke="#2d2b55" stroke-width="1" rx="2"/>
<rect x="347" y="72" width="11" height="11" fill="transparent" stroke="#2d2b55" stroke-width="1" rx="2"/>
<rect x="347" y="85" width="11" height="11" fill="transparent" stroke="#2d2b55" stroke-width="1" rx="2"/>
<rect x="347" y="98" width="11" height="11" fill="transparent" stroke="#2d2b55" stroke-width="1" rx="2"/>
<rect x="360" y="20" width="11" height="11" fill="transparent" stroke="#2d2b55" stroke-width="1" rx="2"/>
<rect x="360" y="33" width="11" height="11" fill="transparent" stroke="#2d2b55" stroke-width="1" rx="2"/>
<rect x="360" y="46" width="11" height="11" fill="transparent" stroke="#2d2b55" stroke-width="1" rx="2"/>
<rect x="360" y="59" width="11" height="11" fill="transparent" stroke="#2d2b55" stroke-width="1" rx="2"/>
<rect x="360" y="72" width="11" height="11" fill="transparent" stroke="#2d2b55" stroke-width="1" rx="2"/>
<rect x="360" y="85" width="11" height="11" fill="transparent" stroke="#2d2b55" stroke-width="1" rx="2"/>
<rect x="360" y="98" width="11" height="11" fill="transparent" stroke="#2d2b55" stroke-width="1" rx="2"/>
<rect x="-303" y="20" width="11" height="11" fill="transparent" stroke="#2d2b55" stroke-width="1" rx="2"/>
<rect x="-303" y="33" width="11" height="11" fill="transparent" stroke="#2d2b55" stroke-width="1" rx="2"/>
<rect x="-303" y="46" width="11" height="11" fill="transparent" stroke="#2d2b55" stroke-width="1" rx="2"/>
<rect x="-303" y="59" width="11" height="11" fill="transparent" stroke="#2d2b55" stroke-width="1" rx="2"/>
<rect x="-303" y="72" width="11" height="11" fill="transparent" stroke="#2d2b55" stroke-width="1" rx="2"/>
<rect x="-303" y="85" width="11" height="11" fill="transparent" stroke="#2d2b55" stroke-width="1" rx="2"/>
<rect x="-303" y="98" width="11" height="11" fill="transparent" stroke="#2d2b55" stroke-width="1" rx="2"/>
<rect x="-290" y="20" width="11" height="11" fill="transparent" stroke="#2d2b55" stroke-width="1" rx="2"/>
<rect x="-290" y="33" width="11" height="11" fill="transparent" stroke="#2d2b55" stroke-width="1" rx="2"/>
<rect x="-290" y="46" width="11" height="11" fill="transparent" stroke="#2d2b55" stroke-width="1" rx="2"/>
<rect x="-290" y="59" width="11" height="11" fill="transparent" stroke="#2d2b55" stroke-width="1" rx="2"/>
<rect x="-290" y="72" width="11" height="11" fill="transparent" stroke="#2d2b55" stroke-width="1" rx="2"/>
<rect x="-290" y="85" width="11" height="11" fill="transparent" stroke="#2d2b55" stroke-width="1" rx="2"/>
<rect x="-290" y="98" width="11" height="11" fill="transparent" stroke="#2d2b55" stroke-width="1" rx="2"/>
<rect x="-277" y="20" width="11" height="11" fill="transparent" stroke="#2d2b55" stroke-width="1" rx="2"/>
<rect x="-277" y="33" width="11" height="11" fill="transparent" stroke="#2d2b55" stroke-width="1" rx="2"/>
<rect x="-277" y="46" width="11" height="11" fill="transparent" stroke="#2d2b55" stroke-width="1" rx="2"/>
<rect x="-277" y="59" width="11" height="11" fill="transparent" stroke="#2d2b55" stroke-width="1" rx="2"/>
<rect x="-277" y="72" width="11" height="11" fill="transparent" stroke="#2d2b55" stroke-width="1" rx="2"/>
<rect x="-277" y="85" width="11" height="11" fill="transparent" stroke="#2d2b55" stroke-width="1" rx="2"/>
<rect x="-277" y="98" width="11" height="11" fill="transparent" stroke="#2d2b55" stroke-width="1" rx="2"/>
<rect x="-264" y="20" width="11" height="11" fill="transparent" stroke="#2d2b55" stroke-width="1" rx="2"/>
<rect x="-264" y="33" width="11" height="11" fill="transparent" stroke="#2d2b55" stroke-width="1" rx="2"/>
<rect x="-264" y="46" width="11" height="11" fill="transparent" stroke="#2d2b55" stroke-width="1" rx="2"/>
<rect x="-264" y="59" width="11" height="11" fill="transparent" stroke="#2d2b55" stroke-width="1" rx="2"/>
<rect x="-264" y="72" width="11" height="11" fill="transparent" stroke="#2d2b55" stroke-width="1" rx="2"/>
<rect x="-264" y="85" width="11" height="11" fill="transparent" stroke="#2d2b55" stroke-width="1" rx="2"/>
<rect x="-264" y="98" width="11" height="11" fill="transparent" stroke="#2d2b55" stroke-width="1" rx="2"/>
<rect x="-251" y="20" width="11" height="11" fill="transparent" stroke="#2d2b55" stroke-width="1" rx="2"/>
<rect x="-251" y="33" width="11" height="11" fill="transparent" stroke="#2d2b55" stroke-width="1" rx="2"/>
<rect x="-251" y="46" width="11" height="11" fill="transparent" stroke="#2d2b55" stroke-width="1" rx="2"/>
<rect x="-251" y="59" width="11" height="11" fill="transparent" stroke="#2d2b55" stroke-width="1" rx="2"/>
<rect x="-251" y="72" width="11" height="11" fill="transparent" stroke="#2d2b55" stroke-width="1" rx="2"/>
<rect x="-251" y="85" width="11" height="11" fill="transparent" stroke="#2d2b55" stroke-width="1" rx="2"/>
<rect x="-251" y="98" width="11" height="11" fill="transparent" stroke="#2d2b55" stroke-width="1" rx="2"/>
<rect x="-238" y="20" width="11" height="11" fill="transparent" stroke="#2d2b55" stroke-width="1" rx="2"/>
<rect x="-238" y="33" width="11" height="11" fill="transparent" stroke="#2d2b55" stroke-width="1" rx="2"/>
<rect x="-238" y="46" width="11" height="11" fill="transparent" stroke="#2d2b55" stroke-width="1" rx="2"/>
<rect x="-238" y="59" width="11" height="11" fill="transparent" stroke="#2d2b55" stroke-width="1" rx="2"/>
<rect x="-238" y="72" width="11" height="11" fill="transparent" stroke="#2d2b55" stroke-width="1" rx="2"/>
<rect x="-238" y="85" width="11" height="11" fill="transparent" stroke="#2d2b55" stroke-width="1" rx="2"/>
<rect x="-238" y="98" width="11" height="11" fill="transparent" stroke="#2d2b55" stroke-width="1" rx="2"/>
<rect x="-225" y="20" width="11" height="11" fill="transparent" stroke="#2d2b55" stroke-width="1" rx="2"/>
<rect x="-225" y="33" width="11" height="11" fill="transparent" stroke="#2d2b55" stroke-width="1" rx="2"/>
<rect x="-225" y="46" width="11" height="11" fill="transparent" stroke="#2d2b55" stroke-width="1" rx="2"/>
<rect x="-225" y="59" width="11" height="11" fill="transparent" stroke="#2d2b55" stroke-width="1" rx="2"/>
<rect x="-225" y="72" width="11" height="11" fill="transparent" stroke="#2d2b55" stroke-width="1" rx="2"/>
<rect x="-225" y="85" width="11" height="11" fill="transparent" stroke="#2d2b55" stroke-width="1" rx="2"/>
<rect x="-225" y="98" width="11" height="11" fill="transparent" stroke="#2d2b55" stroke-width="1" rx="2"/>
<rect x="-212" y="20" width="11" height="11" fill="transparent" stroke="#2d2b55" stroke-width="1" rx="2"/>
<rect x="-212" y="33" width="11" height="11" fill="transparent" stroke="#2d2b55" stroke-width="1" rx="2"/>
<rect x="-212" y="46" width="11" height="11" fill="transparent" stroke="#2d2b55" stroke-width="1" rx="2"/>
<rect x="-212" y="59" width="11" height="11" fill="transparent" stroke="#2d2b55" stroke-width="1" rx="2"/>
<rect x="-212" y="72" width="11" height="11" fill="transparent" stroke="#2d2b55" stroke-width="1" rx="2"/>
<rect x="-212" y="85" width="11" height="11" fill="transparent" stroke="#2d2b55" stroke-width="1" rx="2"/>
<rect x="-212" y="98" width="11" height="11" fill="transparent" stroke="#2d2b55" stroke-width="1" rx="2"/>
<rect x="-199" y="20" width="11" height="11" fill="transparent" stroke="#2d2b55" stroke-width="1" rx="2"/>
<rect x="-199" y="33" width="11" height="11" fill="transparent" stroke="#2d2b55" stroke-width="1" rx="2"/>
<rect x="-199" y="46" width="11" height="11" fill="transparent" stroke="#2d2b55" stroke-width="1" rx="2"/>
<rect x="-199" y="59" width="11" height="11" fill="transparent" stroke="#2d2b55" stroke-width="1" rx="2"/>
<rect x="-199" y="72" width="11" height="11" fill="transparent" stroke="#2d2b55" stroke-width="1" rx="2"/>
<rect x="-199" y="85" width="11" height="11" fill="transparent" stroke="#2d2b55" stroke-width="1" rx="2"/>
<rect x="-199" y="98" width="11" height="11" fill="transparent" stroke="#2d2b55" stroke-width="1" rx="2"/>
<rect x="-186" y="20" width="11" height="11" fill="transparent" stroke="#2d2b55" stroke-width="1" rx="2"/>
<rect x="-186" y="33" width="11" height="11" fill="transparent" stroke="#2d2b55" stroke-width="1" rx="2"/>
<rect x="-186" y="46" width="11" height="11" fill="transparent" stroke="#2d2b55" stroke-width="1" rx="2"/>
<rect x="-186" y="59" width="11" height="11" fill="transparent" stroke="#2d2b55" stroke-width="1" rx="2"/>
<rect x="-186" y="72" width="11" height="11" fill="transparent" stroke="#2d2b55" stroke-width="1" rx="2"/>
<rect x="-186" y="85" width="11" height="11" fill="transparent" stroke="#2d2b55" stroke-width="1" rx="2"/>
<rect x="-186" y="98" width="11" height="11" fill="transparent" stroke="#2d2b55" stroke-width="1" rx="2"/>
<rect x="-173" y="20" width="11" height="11" fill="transparent" stroke="#2d2b55" stroke-width="1" rx="2"/>
<rect x="-173" y="33" width="11" height="11" fill="transparent" stroke="#2d2b55" stroke-width="1" rx="2"/>
<rect x="-173" y="46" width="11" height="11" fill="transparent" stroke="#2d2b55" stroke-width="1" rx="2"/>
<rect x="-173" y="59" width="11" height="11" fill="transparent" stroke="#2d2b55" stroke-width="1" rx="2"/>
<rect x="-173" y="72" width="11" height="11" fill="transparent" stroke="#2d2b55" stroke-width="1" rx="2"/>
<rect x="-173" y="85" width="11" height="11" fill="transparent" stroke="#2d2b55" stroke-width="1" rx="2"/>
<rect x="-173" y="98" width="11" height="11" fill="transparent" stroke="#2d2b55" stroke-width="1" rx="2"/>
<rect x="-160" y="20" width="11" height="11" fill="transparent" stroke="#2d2b55" stroke-width="1" rx="2"/>
<rect x="-160" y="33" width="11" height="11" fill="transparent" stroke="#2d2b55" stroke-width="1" rx="2"/>
<rect x="-160" y="46" width="11" height="11" fill="transparent" stroke="#2d2b55" stroke-width="1" rx="2"/>
<rect x="-160" y="59" width="11" height="11" fill="transparent" stroke="#2d2b55" stroke-width="1" rx="2"/>
<rect x="-160" y="72" width="11" height="11" fill="transparent" stroke="#2d2b55" stroke-width="1" rx="2"/>
<rect x="-160" y="85" width="11" height="11" fill="transparent" stroke="#2d2b55" stroke-width="1" rx="2"/>
<rect x="-160" y="98" width="11" height="11" fill="transparent" stroke="#2d2b55" stroke-width="1" rx="2"/>
<rect x="-147" y="20" width="11" height="11" fill="transparent" stroke="#2d2b55" stroke-width="1" rx="2"/>
<rect x="-147" y="33" width="11" height="11" fill="transparent" stroke="#2d2b55" stroke-width="1" rx="2"/>
<rect x="-147" y="46" width="11" height="11" fill="transparent" stroke="#2d2b55" stroke-width="1" rx="2"/>
<rect x="-147" y="59" width="11" height="11" fill="transparent" stroke="#2d2b55" stroke-width="1" rx="2"/>
<rect x="-147" y="72" width="11" height="11" fill="transparent" stroke="#2d2b55" stroke-width="1" rx="2"/>
<rect x="-147" y="85" width="11" height="11" fill="transparent" stroke="#2d2b55" stroke-width="1" rx="2"/>
<rect x="-147" y="98" width="11" height="11" fill="transparent" stroke="#2d2b55" stroke-width="1" rx="2"/>
<rect x="-134" y="20" width="11" height="11" fill="transparent" stroke="#2d2b55" stroke-width="1" rx="2"/>
<rect x="-134" y="33" width="11" height="11" fill="transparent" stroke="#2d2b55" stroke-width="1" rx="2"/>
<rect x="-134" y="46" width="11" height="11" fill="transparent" stroke="#2d2b55" stroke-width="1" rx="2"/>
<rect x="-134" y="59" width="11" height="11" fill="transparent" stroke="#2d2b55" stroke-width="1" rx="2"/>
<rect x="-134" y="72" width="11" height="11" fill="transparent" stroke="#2d2b55" stroke-width="1" rx="2"/>
<rect x="-134" y="85" width="11" height="11" fill="transparent" stroke="#2d2b55" stroke-width="1" rx="2"/>
<rect x="-134" y="98" width="11" height="11" fill="transparent" stroke="#2d2b55" stroke-width="1" rx="2"/>
<rect x="-121" y="20" width="11" height="11" fill="transparent" stroke="#2d2b55" stroke-width="1" rx="2"/>
<rect x="-121" y="33" width="11" height="11" fill="transparent" stroke="#2d2b55" stroke-width="1" rx="2"/>
<rect x="-121" y="46" width="11" height="11" fill="transparent" stroke="#2d2b55" stroke-width="1" rx="2"/>
<rect x="-121" y="59" width="11" height="11" fill="transparent" stroke="#2d2b55" stroke-width="1" rx="2"/>
<rect x="-121" y="72" width="11" height="11" fill="transparent" stroke="#2d2b55" stroke-width="1" rx="2"/>
<rect x="-121" y="85" width="11" height="11" fill="transparent" stroke="#2d2b55" stroke-width="1" rx="2"/>
<rect x="-121" y="98" width="11" height="11" fill="transparent" stroke="#2d2b55" stroke-width="1" rx="2"/>
<rect x="-108" y="20" width="11" height="11" fill="transparent" stroke="#2d2b55" stroke-width="1" rx="2"/>
<rect x="-108" y="33" width="11" height="11" fill="transparent" stroke="#2d2b55" stroke-width="1" rx="2"/>
<rect x="-108" y="46" width="11" height="11" fill="transparent" stroke="#2d2b55" stroke-width="1" rx="2"/>
<rect x="-108" y="59" width="11" height="11" fill="transparent" stroke="#2d2b55" stroke-width="1" rx="2"/>
<rect x="-108" y="72" width="11" height="11" fill="transparent" stroke="#2d2b55" stroke-width="1" rx="2"/>
<rect x="-108" y="85" width="11" height="11" fill="transparent" stroke="#2d2b55" stroke-width="1" rx="2"/>
<rect x="-108" y="98" width="11" height="11" fill="transparent" stroke="#2d2b55" stroke-width="1" rx="2"/>
<rect x="-95" y="20" width="11" height="11" fill="transparent" stroke="#2d2b55" stroke-width="1" rx="2"/>
<rect x="-95" y="33" width="11" height="11" fill="transparent" stroke="#2d2b55" stroke-width="1" rx="2"/>
<rect x="-95" y="46" width="11" height="11" fill="transparent" stroke="#2d2b55" stroke-width="1" rx="2"/>
<rect x="-95" y="59" width="11" height="11" fill="transparent" stroke="#2d2b55" stroke-width="1" rx="2"/>
<rect x="-95" y="72" width="11" height="11" fill="transparent" stroke="#2d2b55" stroke-width="1" rx="2"/>
<rect x="-95" y="85" width="11" height="11" fill="transparent" stroke="#2d2b55" stroke-width="1" rx="2"/>
<rect x="-95" y="98" width="11" height="11" fill="transparent" stroke="#2d2b55" stroke-width="1" rx="2"/>
<rect x="-82" y="20" width="11" height="11" fill="transparent" stroke="#2d2b55" stroke-width="1" rx="2"/>
<rect x="-82" y="33" width="11" height="11" fill="transparent" stroke="#2d2b55" stroke-width="1" rx="2"/>
<rect x="-82" y="46" width="11" height="11" fill="transparent" stroke="#2d2b55" stroke-width="1" rx="2"/>
<rect x="-82" y="59" width="11" height="11" fill="transparent" stroke="#2d2b55" stroke-width="1" rx="2"/>
<rect x="-82" y="72" width="11" height="11" fill="transparent" stroke="#2d2b55" stroke-width="1" rx="2"/>
<rect x="-82" y="85" width="11" height="11" fill="transparent" stroke="#2d2b55" stroke-width="1" rx="2"/>
<rect x="-82" y="98" width="11" height="11" fill="transparent" stroke="#2d2b55" stroke-width="1" rx="2"/>
<rect x="-69" y="20" width="11" height="11" fill="transparent" stroke="#2d2b55" stroke-width="1" rx="2"/>
<rect x="-69" y="33" width="11" height="11" fill="transparent" stroke="#2d2b55" stroke-width="1" rx="2"/>
<rect x="-69" y="46" width="11" height="11" fill="transparent" stroke="#2d2b55" stroke-width="1" rx="2"/>
<rect x="-69" y="59" width="11" height="11" fill="transparent" stroke="#2d2b55" stroke-width="1" rx="2"/>
<rect x="-69" y="72" width="11" height="11" fill="transparent" stroke="#2d2b55" stroke-width="1" rx="2"/>
<rect x="-69" y="85" width="11" height="11" fill="transparent" stroke="#2d2b55" stroke-width="1" rx="2"/>
<rect x="-69" y="98" width="11" height="11" fill="transparent" stroke="#2d2b55" stroke-width="1" rx="2"/>
<rect x="-56" y="20" width="11" height="11" fill="transparent" stroke="#2d2b55" stroke-width="1" rx="2"/>
<rect x="-56" y="33" width="11" height="11" fill="transparent" stroke="#2d2b55" stroke-width="1" rx="2"/>
<rect x="-56" y="46" width="11" height="11" fill="transparent" stroke="#2d2b55" stroke-width="1" rx="2"/>
<rect x="-56" y="59" width="11" height="11" fill="transparent" stroke="#2d2b55" stroke-width="1" rx="2"/>
<rect x="-56" y="72" width="11" height="11" fill="transparent" stroke="#2d2b55" stroke-width="1" rx="2"/>
<rect x="-56" y="85" width="11" height="11" fill="transparent" stroke="#2d2b55" stroke-width="1" rx="2"/>
<rect x="-56" y="98" width="11" height="11" fill="transparent" stroke="#2d2b55" stroke-width="1" rx="2"/>
<rect x="-43" y="20" width="11" height="11" fill="transparent" stroke="#2d2b55" stroke-width="1" rx="2"/>
<rect x="-43" y="33" width="11" height="11" fill="transparent" stroke="#2d2b55" stroke-width="1" rx="2"/>
<rect x="-43" y="46" width="11" height="11" fill="transparent" stroke="#2d2b55" stroke-width="1" rx="2"/>
<rect x="-43" y="59" width="11" height="11" fill="transparent" stroke="#2d2b55" stroke-width="1" rx="2"/>
<rect x="-43" y="72" width="11" height="11" fill="transparent" stroke="#2d2b55" stroke-width="1" rx="2"/>
<rect x="-43" y="85" width="11" height="11" fill="transparent" stroke="#2d2b55" stroke-width="1" rx="2"/>
<rect x="-43" y="98" width="11" height="11" fill="transparent" stroke="#2d2b55" stroke-width="1" rx="2"/>
<rect x="-30" y="20" width="11" height="11" fill="transparent" stroke="#2d2b55" stroke-width="1" rx="2"/>
<rect x="-30" y="33" width="11" height="11" fill="transparent" stroke="#2d2b55" stroke-width="1" rx="2"/>
<rect x="-30" y="46" width="11" height="11" fill="transparent" stroke="#2d2b55" stroke-width="1" rx="2"/>
<rect x="-30" y="59" width="11" height="11" fill="transparent" stroke="#2d2b55" stroke-width="1" rx="2"/>
<rect x="-30" y="72" width="11" height="11" fill="transparent" stroke="#2d2b55" stroke-width="1" rx="2"/>
<rect x="-30" y="85" width="11" height="11" fill="transparent" stroke="#2d2b55" stroke-width="1" rx="2"/>
<rect x="-30" y="98" width="11" height="11" fill="transparent" stroke="#2d2b55" stroke-width="1" rx="2"/>
<rect x="-17" y="20" width="11" height="11" fill="transparent" stroke="#2d2b55" stroke-width="1" rx="2"/>
<rect x="-17" y="33" width="11" height="11" fill="transparent" stroke="#2d2b55" stroke-width="1" rx="2"/>
<rect x="-17" y="46" width="11" height="11" fill="transparent" stroke="#2d2b55" stroke-width="1" rx="2"/>
<rect x="-17" y="59" width="11" height="11" fill="transparent" stroke="#2d2b55" stroke-width="1" rx="2"/>
<rect x="-17" y="72" width="11" height="11" fill="transparent" stroke="#2d2b55" stroke-width="1" rx="2"/>
<rect x="-17" y="85" width="11" height="11" fill="transparent" stroke="#2d2b55" stroke-width="1" rx="2"/>
<rect x="-17" y="98" width="11" height="11" fill="transparent" stroke="#2d2b55" stroke-width="1" rx="2"/>
<rect x="-4" y="20" width="11" height="11" fill="transparent" stroke="#2d2b55" stroke-width="1" rx="2"/>
<rect x="-4" y="33" width="11" height="11" fill="transparent" stroke="#2d2b55" stroke-width="1" rx="2"/>
<rect x="-4" y="46" width="11" height="11" fill="transparent" stroke="#2d2b55" stroke-width="1" rx="2"/>
<rect x="-4" y="59" width="11" height="11" fill="transparent" stroke="#2d2b55" stroke-width="1" rx="2"/>
<rect x="-4" y="72" width="11" height="11" fill="transparent" stroke="#2d2b55" stroke-width="1" rx="2"/>
<rect x="-4" y="85" width="11" height="11" fill="transparent" stroke="#2d2b55" stroke-width="1" rx="2"/>
<rect x="-4" y="98" width="11" height="11" fill="transparent" stroke="#2d2b55" stroke-width="1" rx="2"/>
<rect x="9" y="20" width="11" height="11" fill="transparent" stroke="#2d2b55" stroke-width="1" rx="2"/>
<rect x="9" y="33" width="11" height="11" fill="transparent" stroke="#2d2b55" stroke-width="1" rx="2"/>
<rect x="9" y="46" width="11" height="11" fill="transparent" stroke="#2d2b55" stroke-width="1" rx="2"/>
<rect x="9" y="59" width="11" height="11" fill="transparent" stroke="#2d2b55" stroke-width="1" rx="2"/>
<rect x="9" y="72" width="11" height="11" fill="transparent" stroke="#2d2b55" stroke-width="1" rx="2"/>
<rect x="9" y="85" width="11" height="11" fill="transparent" stroke="#2d2b55" stroke-width="1" rx="2"/>
<rect x="9" y="98" width="11" height="11" fill="transparent" stroke="#2d2b55" stroke-width="1" rx="2"/>
<rect x="22" y="20" width="11" height="11" fill="transparent" stroke="#2d2b55" stroke-width="1" rx="2"/>
<rect x="22" y="33" width="11" height="11" fill="transparent" stroke="#2d2b55" stroke-width="1" rx="2"/>
<rect x="22" y="46" width="11" height="11" fill="transparent" stroke="#2d2b55" stroke-width="1" rx="2"/>
<rect x="22" y="59" width="11" height="11" fill="transparent" stroke="#2d2b55" stroke-width="1" rx="2"/>
<rect x="22" y="72" width="11" height="11" fill="transparent" stroke="#2d2b55" stroke-width="1" rx="2"/>
<rect x="22" y="85" width="11" height="11" fill="transparent" stroke="#2d2b55" stroke-width="1" rx="2"/>
<rect x="22" y="98" width="11" height="11" fill="transparent" stroke="#2d2b55" stroke-width="1" rx="2"/>
<rect x="35" y="20" width="11" height="11" fill="transparent" stroke="#2d2b55" stroke-width="1" rx="2"/>
<rect x="35" y="33" width="11" height="11" fill="transparent" stroke="#2d2b55" stroke-width="1" rx="2"/>
<rect x="35" y="46" width="11" height="11" fill="transparent" stroke="#2d2b55" stroke-width="1" rx="2"/>
<rect x="35" y="59" width="11" height="11" fill="#2d2b55" stroke="none" stroke-width="0" rx="2"/>
<rect x="35" y="72" width="11" height="11" fill="#4b47a0" stroke="none" stroke-width="0" rx="2"/>
</svg>